<mxfile host="app.diagrams.net" modified="2024-05-19T18:44:34.535Z" agent="Mozilla/5.0 (Windows NT 10.0; Win64; x64) AppleWebKit/537.36 (KHTML, like Gecko) Chrome/120.0.0.0 Safari/537.36" etag="Lq-9cbU0hhTuvEk4ibNS" version="24.4.4" type="github">
  <diagram id="R2lEEEUBdFMjLlhIrx00" name="Page-1">
    <mxGraphModel dx="1229" dy="2449" grid="1" gridSize="10" guides="1" tooltips="1" connect="1" arrows="1" fold="1" page="1" pageScale="1" pageWidth="850" pageHeight="1100" math="0" shadow="0" extFonts="Permanent Marker^https://fonts.googleapis.com/css?family=Permanent+Marker">
      <root>
        <mxCell id="0" />
        <mxCell id="1" parent="0" />
        <mxCell id="EIEG8Gj2_d-XNbKttuhR-102" value="" style="rounded=0;whiteSpace=wrap;html=1;" vertex="1" parent="1">
          <mxGeometry y="-120" width="1040" height="790" as="geometry" />
        </mxCell>
        <mxCell id="EIEG8Gj2_d-XNbKttuhR-1" value="&lt;font style=&quot;font-size: 18px;&quot;&gt;用户&lt;/font&gt;" style="rounded=0;whiteSpace=wrap;html=1;" vertex="1" parent="1">
          <mxGeometry x="190" y="210" width="90" height="40" as="geometry" />
        </mxCell>
        <mxCell id="EIEG8Gj2_d-XNbKttuhR-2" value="&lt;font style=&quot;font-size: 18px;&quot;&gt;用户所有设备状态&lt;/font&gt;" style="rounded=0;whiteSpace=wrap;html=1;" vertex="1" parent="1">
          <mxGeometry x="570" y="210" width="170" height="40" as="geometry" />
        </mxCell>
        <mxCell id="EIEG8Gj2_d-XNbKttuhR-3" value="&lt;font style=&quot;font-size: 18px;&quot;&gt;拥有&lt;/font&gt;" style="rhombus;whiteSpace=wrap;html=1;" vertex="1" parent="1">
          <mxGeometry x="380" y="200" width="110" height="60" as="geometry" />
        </mxCell>
        <mxCell id="EIEG8Gj2_d-XNbKttuhR-5" value="&lt;font style=&quot;font-size: 18px;&quot;&gt;设备&lt;/font&gt;" style="rounded=0;whiteSpace=wrap;html=1;" vertex="1" parent="1">
          <mxGeometry x="790" y="480" width="90" height="40" as="geometry" />
        </mxCell>
        <mxCell id="EIEG8Gj2_d-XNbKttuhR-6" value="&lt;font style=&quot;font-size: 18px;&quot;&gt;房间&lt;/font&gt;" style="rounded=0;whiteSpace=wrap;html=1;" vertex="1" parent="1">
          <mxGeometry x="430" y="480" width="90" height="40" as="geometry" />
        </mxCell>
        <mxCell id="EIEG8Gj2_d-XNbKttuhR-7" value="&lt;font style=&quot;font-size: 18px;&quot;&gt;分配&lt;/font&gt;" style="rhombus;whiteSpace=wrap;html=1;" vertex="1" parent="1">
          <mxGeometry x="465" y="340" width="110" height="60" as="geometry" />
        </mxCell>
        <mxCell id="EIEG8Gj2_d-XNbKttuhR-8" value="&lt;font style=&quot;font-size: 18px;&quot;&gt;分配&lt;/font&gt;" style="rhombus;whiteSpace=wrap;html=1;" vertex="1" parent="1">
          <mxGeometry x="710" y="340" width="110" height="60" as="geometry" />
        </mxCell>
        <mxCell id="EIEG8Gj2_d-XNbKttuhR-10" value="&lt;font style=&quot;font-size: 18px;&quot;&gt;拥有&lt;/font&gt;" style="rhombus;whiteSpace=wrap;html=1;" vertex="1" parent="1">
          <mxGeometry x="600" y="470" width="110" height="60" as="geometry" />
        </mxCell>
        <mxCell id="EIEG8Gj2_d-XNbKttuhR-11" value="&lt;font style=&quot;font-size: 18px;&quot;&gt;场景中设备状态&lt;/font&gt;" style="rounded=0;whiteSpace=wrap;html=1;" vertex="1" parent="1">
          <mxGeometry x="390" y="50" width="150" height="40" as="geometry" />
        </mxCell>
        <mxCell id="EIEG8Gj2_d-XNbKttuhR-12" value="&lt;font style=&quot;font-size: 18px;&quot;&gt;设定&lt;/font&gt;" style="rhombus;whiteSpace=wrap;html=1;" vertex="1" parent="1">
          <mxGeometry x="240" y="110" width="110" height="60" as="geometry" />
        </mxCell>
        <mxCell id="EIEG8Gj2_d-XNbKttuhR-17" value="&lt;font style=&quot;font-size: 18px;&quot;&gt;设定&lt;/font&gt;" style="rhombus;whiteSpace=wrap;html=1;" vertex="1" parent="1">
          <mxGeometry x="570" y="110" width="110" height="60" as="geometry" />
        </mxCell>
        <mxCell id="EIEG8Gj2_d-XNbKttuhR-18" value="" style="endArrow=none;html=1;rounded=0;entryX=0.5;entryY=0;entryDx=0;entryDy=0;exitX=0.5;exitY=1;exitDx=0;exitDy=0;" edge="1" parent="1" source="EIEG8Gj2_d-XNbKttuhR-12" target="EIEG8Gj2_d-XNbKttuhR-1">
          <mxGeometry width="50" height="50" relative="1" as="geometry">
            <mxPoint x="440" y="480" as="sourcePoint" />
            <mxPoint x="490" y="430" as="targetPoint" />
          </mxGeometry>
        </mxCell>
        <mxCell id="EIEG8Gj2_d-XNbKttuhR-19" value="" style="endArrow=none;html=1;rounded=0;exitX=0;exitY=0.5;exitDx=0;exitDy=0;entryX=0.5;entryY=0;entryDx=0;entryDy=0;" edge="1" parent="1" source="EIEG8Gj2_d-XNbKttuhR-11" target="EIEG8Gj2_d-XNbKttuhR-12">
          <mxGeometry width="50" height="50" relative="1" as="geometry">
            <mxPoint x="245" y="310" as="sourcePoint" />
            <mxPoint x="230" y="370" as="targetPoint" />
          </mxGeometry>
        </mxCell>
        <mxCell id="EIEG8Gj2_d-XNbKttuhR-21" value="" style="endArrow=none;html=1;rounded=0;entryX=1;entryY=0.5;entryDx=0;entryDy=0;entryPerimeter=0;exitX=0.5;exitY=0;exitDx=0;exitDy=0;" edge="1" parent="1" source="EIEG8Gj2_d-XNbKttuhR-17" target="EIEG8Gj2_d-XNbKttuhR-11">
          <mxGeometry width="50" height="50" relative="1" as="geometry">
            <mxPoint x="255" y="320" as="sourcePoint" />
            <mxPoint x="255" y="270" as="targetPoint" />
          </mxGeometry>
        </mxCell>
        <mxCell id="EIEG8Gj2_d-XNbKttuhR-22" value="" style="endArrow=none;html=1;rounded=0;entryX=0.5;entryY=1;entryDx=0;entryDy=0;exitX=0.5;exitY=0;exitDx=0;exitDy=0;" edge="1" parent="1" source="EIEG8Gj2_d-XNbKttuhR-2" target="EIEG8Gj2_d-XNbKttuhR-17">
          <mxGeometry width="50" height="50" relative="1" as="geometry">
            <mxPoint x="265" y="330" as="sourcePoint" />
            <mxPoint x="265" y="280" as="targetPoint" />
          </mxGeometry>
        </mxCell>
        <mxCell id="EIEG8Gj2_d-XNbKttuhR-23" value="" style="endArrow=none;html=1;rounded=0;entryX=0;entryY=0.5;entryDx=0;entryDy=0;exitX=1;exitY=0.5;exitDx=0;exitDy=0;" edge="1" parent="1" source="EIEG8Gj2_d-XNbKttuhR-1" target="EIEG8Gj2_d-XNbKttuhR-3">
          <mxGeometry width="50" height="50" relative="1" as="geometry">
            <mxPoint x="275" y="340" as="sourcePoint" />
            <mxPoint x="275" y="290" as="targetPoint" />
          </mxGeometry>
        </mxCell>
        <mxCell id="EIEG8Gj2_d-XNbKttuhR-24" value="" style="endArrow=none;html=1;rounded=0;entryX=1;entryY=0.5;entryDx=0;entryDy=0;exitX=0;exitY=0.5;exitDx=0;exitDy=0;" edge="1" parent="1" source="EIEG8Gj2_d-XNbKttuhR-2" target="EIEG8Gj2_d-XNbKttuhR-3">
          <mxGeometry width="50" height="50" relative="1" as="geometry">
            <mxPoint x="285" y="350" as="sourcePoint" />
            <mxPoint x="285" y="300" as="targetPoint" />
          </mxGeometry>
        </mxCell>
        <mxCell id="EIEG8Gj2_d-XNbKttuhR-25" value="" style="endArrow=none;html=1;rounded=0;entryX=0.5;entryY=0;entryDx=0;entryDy=0;exitX=0.25;exitY=1;exitDx=0;exitDy=0;" edge="1" parent="1" source="EIEG8Gj2_d-XNbKttuhR-2" target="EIEG8Gj2_d-XNbKttuhR-7">
          <mxGeometry width="50" height="50" relative="1" as="geometry">
            <mxPoint x="295" y="360" as="sourcePoint" />
            <mxPoint x="295" y="310" as="targetPoint" />
          </mxGeometry>
        </mxCell>
        <mxCell id="EIEG8Gj2_d-XNbKttuhR-26" value="" style="endArrow=none;html=1;rounded=0;entryX=0.75;entryY=1;entryDx=0;entryDy=0;exitX=0.5;exitY=0;exitDx=0;exitDy=0;" edge="1" parent="1" source="EIEG8Gj2_d-XNbKttuhR-8" target="EIEG8Gj2_d-XNbKttuhR-2">
          <mxGeometry width="50" height="50" relative="1" as="geometry">
            <mxPoint x="305" y="370" as="sourcePoint" />
            <mxPoint x="305" y="320" as="targetPoint" />
          </mxGeometry>
        </mxCell>
        <mxCell id="EIEG8Gj2_d-XNbKttuhR-27" value="" style="endArrow=none;html=1;rounded=0;entryX=0.5;entryY=0;entryDx=0;entryDy=0;exitX=0.5;exitY=1;exitDx=0;exitDy=0;" edge="1" parent="1" source="EIEG8Gj2_d-XNbKttuhR-7" target="EIEG8Gj2_d-XNbKttuhR-6">
          <mxGeometry width="50" height="50" relative="1" as="geometry">
            <mxPoint x="315" y="380" as="sourcePoint" />
            <mxPoint x="315" y="330" as="targetPoint" />
          </mxGeometry>
        </mxCell>
        <mxCell id="EIEG8Gj2_d-XNbKttuhR-28" value="" style="endArrow=none;html=1;rounded=0;exitX=0.5;exitY=1;exitDx=0;exitDy=0;" edge="1" parent="1" source="EIEG8Gj2_d-XNbKttuhR-8" target="EIEG8Gj2_d-XNbKttuhR-5">
          <mxGeometry width="50" height="50" relative="1" as="geometry">
            <mxPoint x="325" y="390" as="sourcePoint" />
            <mxPoint x="325" y="340" as="targetPoint" />
          </mxGeometry>
        </mxCell>
        <mxCell id="EIEG8Gj2_d-XNbKttuhR-29" value="" style="endArrow=none;html=1;rounded=0;entryX=0;entryY=0.5;entryDx=0;entryDy=0;exitX=1;exitY=0.5;exitDx=0;exitDy=0;" edge="1" parent="1" source="EIEG8Gj2_d-XNbKttuhR-10" target="EIEG8Gj2_d-XNbKttuhR-5">
          <mxGeometry width="50" height="50" relative="1" as="geometry">
            <mxPoint x="335" y="400" as="sourcePoint" />
            <mxPoint x="335" y="350" as="targetPoint" />
          </mxGeometry>
        </mxCell>
        <mxCell id="EIEG8Gj2_d-XNbKttuhR-30" value="" style="endArrow=none;html=1;rounded=0;entryX=0;entryY=0.5;entryDx=0;entryDy=0;exitX=1;exitY=0.5;exitDx=0;exitDy=0;" edge="1" parent="1" source="EIEG8Gj2_d-XNbKttuhR-6" target="EIEG8Gj2_d-XNbKttuhR-10">
          <mxGeometry width="50" height="50" relative="1" as="geometry">
            <mxPoint x="735" y="690" as="sourcePoint" />
            <mxPoint x="345" y="360" as="targetPoint" />
          </mxGeometry>
        </mxCell>
        <mxCell id="EIEG8Gj2_d-XNbKttuhR-31" value="&lt;font style=&quot;font-size: 18px;&quot;&gt;id&lt;/font&gt;" style="ellipse;whiteSpace=wrap;html=1;" vertex="1" parent="1">
          <mxGeometry x="90" y="130" width="100" height="40" as="geometry" />
        </mxCell>
        <mxCell id="EIEG8Gj2_d-XNbKttuhR-33" value="&lt;font style=&quot;font-size: 18px;&quot;&gt;用户名&lt;/font&gt;" style="ellipse;whiteSpace=wrap;html=1;" vertex="1" parent="1">
          <mxGeometry x="40" y="190" width="100" height="40" as="geometry" />
        </mxCell>
        <mxCell id="EIEG8Gj2_d-XNbKttuhR-34" value="&lt;font style=&quot;font-size: 18px;&quot;&gt;手机号&lt;/font&gt;" style="ellipse;whiteSpace=wrap;html=1;" vertex="1" parent="1">
          <mxGeometry x="60" y="260" width="100" height="40" as="geometry" />
        </mxCell>
        <mxCell id="EIEG8Gj2_d-XNbKttuhR-35" value="&lt;font style=&quot;font-size: 18px;&quot;&gt;密码&lt;/font&gt;&lt;span style=&quot;color: rgba(0, 0, 0, 0); font-family: monospace; font-size: 0px; text-align: start; text-wrap: nowrap;&quot;&gt;%3CmxGraphModel%3E%3Croot%3E%3CmxCell%20id%3D%220%22%2F%3E%3CmxCell%20id%3D%221%22%20parent%3D%220%22%2F%3E%3CmxCell%20id%3D%222%22%20value%3D%22%26lt%3Bfont%20style%3D%26quot%3Bfont-size%3A%2018px%3B%26quot%3B%26gt%3B%E6%89%8B%E6%9C%BA%E5%8F%B7%26lt%3B%2Ffont%26gt%3B%22%20style%3D%22ellipse%3BwhiteSpace%3Dwrap%3Bhtml%3D1%3B%22%20vertex%3D%221%22%20parent%3D%221%22%3E%3CmxGeometry%20x%3D%22375%22%20y%3D%22120%22%20width%3D%22100%22%20height%3D%2240%22%20as%3D%22geometry%22%2F%3E%3C%2FmxCell%3E%3C%2Froot%3E%3C%2FmxGraphModel%3E&lt;/span&gt;" style="ellipse;whiteSpace=wrap;html=1;" vertex="1" parent="1">
          <mxGeometry x="130" y="310" width="100" height="40" as="geometry" />
        </mxCell>
        <mxCell id="EIEG8Gj2_d-XNbKttuhR-36" value="&lt;font style=&quot;font-size: 18px;&quot;&gt;头像&lt;/font&gt;" style="ellipse;whiteSpace=wrap;html=1;" vertex="1" parent="1">
          <mxGeometry x="250" y="290" width="100" height="40" as="geometry" />
        </mxCell>
        <mxCell id="EIEG8Gj2_d-XNbKttuhR-38" value="&lt;font style=&quot;font-size: 18px;&quot;&gt;1&lt;/font&gt;" style="text;html=1;align=center;verticalAlign=middle;whiteSpace=wrap;rounded=0;" vertex="1" parent="1">
          <mxGeometry x="300" y="210" width="60" height="30" as="geometry" />
        </mxCell>
        <mxCell id="EIEG8Gj2_d-XNbKttuhR-39" value="&lt;font style=&quot;font-size: 18px;&quot;&gt;N&lt;/font&gt;" style="text;html=1;align=center;verticalAlign=middle;whiteSpace=wrap;rounded=0;" vertex="1" parent="1">
          <mxGeometry x="500" y="210" width="60" height="30" as="geometry" />
        </mxCell>
        <mxCell id="EIEG8Gj2_d-XNbKttuhR-40" value="&lt;font style=&quot;font-size: 18px;&quot;&gt;N&lt;/font&gt;" style="text;html=1;align=center;verticalAlign=middle;whiteSpace=wrap;rounded=0;" vertex="1" parent="1">
          <mxGeometry x="530" y="280" width="60" height="30" as="geometry" />
        </mxCell>
        <mxCell id="EIEG8Gj2_d-XNbKttuhR-41" value="&lt;font style=&quot;font-size: 18px;&quot;&gt;N&lt;/font&gt;" style="text;html=1;align=center;verticalAlign=middle;whiteSpace=wrap;rounded=0;" vertex="1" parent="1">
          <mxGeometry x="710" y="280" width="60" height="30" as="geometry" />
        </mxCell>
        <mxCell id="EIEG8Gj2_d-XNbKttuhR-43" value="&lt;font style=&quot;font-size: 18px;&quot;&gt;N&lt;/font&gt;" style="text;html=1;align=center;verticalAlign=middle;whiteSpace=wrap;rounded=0;" vertex="1" parent="1">
          <mxGeometry x="720" y="480" width="60" height="30" as="geometry" />
        </mxCell>
        <mxCell id="EIEG8Gj2_d-XNbKttuhR-44" value="&lt;font style=&quot;font-size: 18px;&quot;&gt;N&lt;/font&gt;" style="text;html=1;align=center;verticalAlign=middle;whiteSpace=wrap;rounded=0;" vertex="1" parent="1">
          <mxGeometry x="300" y="70" width="60" height="30" as="geometry" />
        </mxCell>
        <mxCell id="EIEG8Gj2_d-XNbKttuhR-46" value="&lt;font style=&quot;font-size: 18px;&quot;&gt;N&lt;/font&gt;" style="text;html=1;align=center;verticalAlign=middle;whiteSpace=wrap;rounded=0;" vertex="1" parent="1">
          <mxGeometry x="620" y="170" width="60" height="30" as="geometry" />
        </mxCell>
        <mxCell id="EIEG8Gj2_d-XNbKttuhR-50" value="&lt;font style=&quot;font-size: 18px;&quot;&gt;1&lt;/font&gt;" style="text;html=1;align=center;verticalAlign=middle;whiteSpace=wrap;rounded=0;" vertex="1" parent="1">
          <mxGeometry x="230" y="170" width="60" height="30" as="geometry" />
        </mxCell>
        <mxCell id="EIEG8Gj2_d-XNbKttuhR-51" value="&lt;font style=&quot;font-size: 18px;&quot;&gt;1&lt;/font&gt;" style="text;html=1;align=center;verticalAlign=middle;whiteSpace=wrap;rounded=0;" vertex="1" parent="1">
          <mxGeometry x="560" y="70" width="60" height="30" as="geometry" />
        </mxCell>
        <mxCell id="EIEG8Gj2_d-XNbKttuhR-52" value="&lt;font style=&quot;font-size: 18px;&quot;&gt;1&lt;/font&gt;" style="text;html=1;align=center;verticalAlign=middle;whiteSpace=wrap;rounded=0;" vertex="1" parent="1">
          <mxGeometry x="465" y="420" width="60" height="30" as="geometry" />
        </mxCell>
        <mxCell id="EIEG8Gj2_d-XNbKttuhR-53" value="&lt;font style=&quot;font-size: 18px;&quot;&gt;1&lt;/font&gt;" style="text;html=1;align=center;verticalAlign=middle;whiteSpace=wrap;rounded=0;" vertex="1" parent="1">
          <mxGeometry x="530" y="480" width="60" height="30" as="geometry" />
        </mxCell>
        <mxCell id="EIEG8Gj2_d-XNbKttuhR-54" value="&lt;font style=&quot;font-size: 18px;&quot;&gt;1&lt;/font&gt;" style="text;html=1;align=center;verticalAlign=middle;whiteSpace=wrap;rounded=0;" vertex="1" parent="1">
          <mxGeometry x="760" y="415" width="60" height="30" as="geometry" />
        </mxCell>
        <mxCell id="EIEG8Gj2_d-XNbKttuhR-58" value="" style="endArrow=none;html=1;rounded=0;entryX=0.25;entryY=0;entryDx=0;entryDy=0;exitX=1;exitY=1;exitDx=0;exitDy=0;" edge="1" parent="1" source="EIEG8Gj2_d-XNbKttuhR-31" target="EIEG8Gj2_d-XNbKttuhR-1">
          <mxGeometry width="50" height="50" relative="1" as="geometry">
            <mxPoint x="400" y="340" as="sourcePoint" />
            <mxPoint x="450" y="290" as="targetPoint" />
          </mxGeometry>
        </mxCell>
        <mxCell id="EIEG8Gj2_d-XNbKttuhR-62" value="" style="endArrow=none;html=1;rounded=0;entryX=0;entryY=0.25;entryDx=0;entryDy=0;exitX=1;exitY=0.5;exitDx=0;exitDy=0;" edge="1" parent="1" source="EIEG8Gj2_d-XNbKttuhR-33" target="EIEG8Gj2_d-XNbKttuhR-1">
          <mxGeometry width="50" height="50" relative="1" as="geometry">
            <mxPoint x="185" y="174" as="sourcePoint" />
            <mxPoint x="223" y="220" as="targetPoint" />
          </mxGeometry>
        </mxCell>
        <mxCell id="EIEG8Gj2_d-XNbKttuhR-63" value="" style="endArrow=none;html=1;rounded=0;entryX=0;entryY=0.75;entryDx=0;entryDy=0;exitX=1;exitY=0;exitDx=0;exitDy=0;" edge="1" parent="1" source="EIEG8Gj2_d-XNbKttuhR-34" target="EIEG8Gj2_d-XNbKttuhR-1">
          <mxGeometry width="50" height="50" relative="1" as="geometry">
            <mxPoint x="150" y="220" as="sourcePoint" />
            <mxPoint x="200" y="230" as="targetPoint" />
          </mxGeometry>
        </mxCell>
        <mxCell id="EIEG8Gj2_d-XNbKttuhR-64" value="" style="endArrow=none;html=1;rounded=0;entryX=0.25;entryY=1;entryDx=0;entryDy=0;exitX=0.5;exitY=0;exitDx=0;exitDy=0;" edge="1" parent="1" source="EIEG8Gj2_d-XNbKttuhR-35" target="EIEG8Gj2_d-XNbKttuhR-1">
          <mxGeometry width="50" height="50" relative="1" as="geometry">
            <mxPoint x="160" y="230" as="sourcePoint" />
            <mxPoint x="210" y="240" as="targetPoint" />
          </mxGeometry>
        </mxCell>
        <mxCell id="EIEG8Gj2_d-XNbKttuhR-65" value="" style="endArrow=none;html=1;rounded=0;entryX=0.5;entryY=1;entryDx=0;entryDy=0;exitX=0.567;exitY=-0.036;exitDx=0;exitDy=0;exitPerimeter=0;" edge="1" parent="1" source="EIEG8Gj2_d-XNbKttuhR-36" target="EIEG8Gj2_d-XNbKttuhR-1">
          <mxGeometry width="50" height="50" relative="1" as="geometry">
            <mxPoint x="170" y="240" as="sourcePoint" />
            <mxPoint x="220" y="250" as="targetPoint" />
          </mxGeometry>
        </mxCell>
        <mxCell id="EIEG8Gj2_d-XNbKttuhR-69" value="&lt;font style=&quot;font-size: 18px;&quot;&gt;id&lt;/font&gt;" style="ellipse;whiteSpace=wrap;html=1;" vertex="1" parent="1">
          <mxGeometry x="670" y="570" width="100" height="40" as="geometry" />
        </mxCell>
        <mxCell id="EIEG8Gj2_d-XNbKttuhR-70" value="&lt;font style=&quot;font-size: 18px;&quot;&gt;设备名称&lt;/font&gt;" style="ellipse;whiteSpace=wrap;html=1;" vertex="1" parent="1">
          <mxGeometry x="780" y="590" width="100" height="40" as="geometry" />
        </mxCell>
        <mxCell id="EIEG8Gj2_d-XNbKttuhR-71" value="&lt;font style=&quot;font-size: 18px;&quot;&gt;设备图片&lt;/font&gt;" style="ellipse;whiteSpace=wrap;html=1;" vertex="1" parent="1">
          <mxGeometry x="890" y="570" width="100" height="40" as="geometry" />
        </mxCell>
        <mxCell id="EIEG8Gj2_d-XNbKttuhR-72" value="" style="endArrow=none;html=1;rounded=0;entryX=0.25;entryY=1;entryDx=0;entryDy=0;exitX=0.772;exitY=0.075;exitDx=0;exitDy=0;exitPerimeter=0;" edge="1" parent="1" source="EIEG8Gj2_d-XNbKttuhR-69" target="EIEG8Gj2_d-XNbKttuhR-5">
          <mxGeometry width="50" height="50" relative="1" as="geometry">
            <mxPoint x="690" y="540" as="sourcePoint" />
            <mxPoint x="740" y="490" as="targetPoint" />
          </mxGeometry>
        </mxCell>
        <mxCell id="EIEG8Gj2_d-XNbKttuhR-74" value="" style="endArrow=none;html=1;rounded=0;entryX=0.5;entryY=1;entryDx=0;entryDy=0;" edge="1" parent="1" source="EIEG8Gj2_d-XNbKttuhR-70" target="EIEG8Gj2_d-XNbKttuhR-5">
          <mxGeometry width="50" height="50" relative="1" as="geometry">
            <mxPoint x="730" y="580" as="sourcePoint" />
            <mxPoint x="823" y="530" as="targetPoint" />
          </mxGeometry>
        </mxCell>
        <mxCell id="EIEG8Gj2_d-XNbKttuhR-75" value="" style="endArrow=none;html=1;rounded=0;entryX=0.75;entryY=1;entryDx=0;entryDy=0;exitX=0.5;exitY=0;exitDx=0;exitDy=0;" edge="1" parent="1" source="EIEG8Gj2_d-XNbKttuhR-71" target="EIEG8Gj2_d-XNbKttuhR-5">
          <mxGeometry width="50" height="50" relative="1" as="geometry">
            <mxPoint x="940" y="570" as="sourcePoint" />
            <mxPoint x="845" y="530" as="targetPoint" />
          </mxGeometry>
        </mxCell>
        <mxCell id="EIEG8Gj2_d-XNbKttuhR-76" value="&lt;font style=&quot;font-size: 18px;&quot;&gt;id&lt;/font&gt;" style="ellipse;whiteSpace=wrap;html=1;" vertex="1" parent="1">
          <mxGeometry x="290" y="520" width="100" height="40" as="geometry" />
        </mxCell>
        <mxCell id="EIEG8Gj2_d-XNbKttuhR-77" value="&lt;font style=&quot;font-size: 18px;&quot;&gt;房间名称&lt;/font&gt;" style="ellipse;whiteSpace=wrap;html=1;" vertex="1" parent="1">
          <mxGeometry x="400" y="570" width="100" height="40" as="geometry" />
        </mxCell>
        <mxCell id="EIEG8Gj2_d-XNbKttuhR-78" value="" style="endArrow=none;html=1;rounded=0;entryX=0;entryY=0.5;entryDx=0;entryDy=0;exitX=0.73;exitY=0.033;exitDx=0;exitDy=0;exitPerimeter=0;" edge="1" parent="1" source="EIEG8Gj2_d-XNbKttuhR-76" target="EIEG8Gj2_d-XNbKttuhR-6">
          <mxGeometry width="50" height="50" relative="1" as="geometry">
            <mxPoint x="510" y="540" as="sourcePoint" />
            <mxPoint x="560" y="490" as="targetPoint" />
          </mxGeometry>
        </mxCell>
        <mxCell id="EIEG8Gj2_d-XNbKttuhR-79" value="" style="endArrow=none;html=1;rounded=0;entryX=0.5;entryY=1;entryDx=0;entryDy=0;exitX=0.5;exitY=0;exitDx=0;exitDy=0;" edge="1" parent="1" source="EIEG8Gj2_d-XNbKttuhR-77" target="EIEG8Gj2_d-XNbKttuhR-6">
          <mxGeometry width="50" height="50" relative="1" as="geometry">
            <mxPoint x="350" y="530" as="sourcePoint" />
            <mxPoint x="440" y="510" as="targetPoint" />
          </mxGeometry>
        </mxCell>
        <mxCell id="EIEG8Gj2_d-XNbKttuhR-80" value="&lt;font style=&quot;font-size: 18px;&quot;&gt;用户设备id&lt;/font&gt;" style="ellipse;whiteSpace=wrap;html=1;" vertex="1" parent="1">
          <mxGeometry x="710" y="90" width="110" height="40" as="geometry" />
        </mxCell>
        <mxCell id="EIEG8Gj2_d-XNbKttuhR-81" value="&lt;font style=&quot;font-size: 18px;&quot;&gt;用户id&lt;/font&gt;" style="ellipse;whiteSpace=wrap;html=1;" vertex="1" parent="1">
          <mxGeometry x="800" y="130" width="100" height="40" as="geometry" />
        </mxCell>
        <mxCell id="EIEG8Gj2_d-XNbKttuhR-83" value="&lt;font style=&quot;font-size: 18px;&quot;&gt;设备id&lt;/font&gt;" style="ellipse;whiteSpace=wrap;html=1;" vertex="1" parent="1">
          <mxGeometry x="850" y="180" width="100" height="40" as="geometry" />
        </mxCell>
        <mxCell id="EIEG8Gj2_d-XNbKttuhR-84" value="&lt;font style=&quot;font-size: 18px;&quot;&gt;房间id&lt;/font&gt;" style="ellipse;whiteSpace=wrap;html=1;" vertex="1" parent="1">
          <mxGeometry x="870" y="230" width="100" height="40" as="geometry" />
        </mxCell>
        <mxCell id="EIEG8Gj2_d-XNbKttuhR-85" value="&lt;font style=&quot;font-size: 18px;&quot;&gt;设备状态&lt;/font&gt;" style="ellipse;whiteSpace=wrap;html=1;" vertex="1" parent="1">
          <mxGeometry x="790" y="270" width="100" height="40" as="geometry" />
        </mxCell>
        <mxCell id="EIEG8Gj2_d-XNbKttuhR-87" value="" style="endArrow=none;html=1;rounded=0;entryX=0.75;entryY=0;entryDx=0;entryDy=0;exitX=0.5;exitY=1;exitDx=0;exitDy=0;" edge="1" parent="1" source="EIEG8Gj2_d-XNbKttuhR-80" target="EIEG8Gj2_d-XNbKttuhR-2">
          <mxGeometry width="50" height="50" relative="1" as="geometry">
            <mxPoint x="620" y="380" as="sourcePoint" />
            <mxPoint x="670" y="330" as="targetPoint" />
          </mxGeometry>
        </mxCell>
        <mxCell id="EIEG8Gj2_d-XNbKttuhR-88" value="" style="endArrow=none;html=1;rounded=0;entryX=1;entryY=0;entryDx=0;entryDy=0;exitX=0;exitY=1;exitDx=0;exitDy=0;" edge="1" parent="1" source="EIEG8Gj2_d-XNbKttuhR-81" target="EIEG8Gj2_d-XNbKttuhR-2">
          <mxGeometry width="50" height="50" relative="1" as="geometry">
            <mxPoint x="775" y="140" as="sourcePoint" />
            <mxPoint x="708" y="220" as="targetPoint" />
          </mxGeometry>
        </mxCell>
        <mxCell id="EIEG8Gj2_d-XNbKttuhR-89" value="" style="endArrow=none;html=1;rounded=0;entryX=1;entryY=0.25;entryDx=0;entryDy=0;exitX=0;exitY=0.5;exitDx=0;exitDy=0;" edge="1" parent="1" source="EIEG8Gj2_d-XNbKttuhR-83" target="EIEG8Gj2_d-XNbKttuhR-2">
          <mxGeometry width="50" height="50" relative="1" as="geometry">
            <mxPoint x="825" y="174" as="sourcePoint" />
            <mxPoint x="750" y="220" as="targetPoint" />
          </mxGeometry>
        </mxCell>
        <mxCell id="EIEG8Gj2_d-XNbKttuhR-90" value="" style="endArrow=none;html=1;rounded=0;entryX=1;entryY=0.75;entryDx=0;entryDy=0;exitX=0;exitY=0;exitDx=0;exitDy=0;" edge="1" parent="1" source="EIEG8Gj2_d-XNbKttuhR-84" target="EIEG8Gj2_d-XNbKttuhR-2">
          <mxGeometry width="50" height="50" relative="1" as="geometry">
            <mxPoint x="860" y="210" as="sourcePoint" />
            <mxPoint x="750" y="230" as="targetPoint" />
          </mxGeometry>
        </mxCell>
        <mxCell id="EIEG8Gj2_d-XNbKttuhR-91" value="" style="endArrow=none;html=1;rounded=0;entryX=1;entryY=1;entryDx=0;entryDy=0;exitX=0.247;exitY=0.075;exitDx=0;exitDy=0;exitPerimeter=0;" edge="1" parent="1" source="EIEG8Gj2_d-XNbKttuhR-85" target="EIEG8Gj2_d-XNbKttuhR-2">
          <mxGeometry width="50" height="50" relative="1" as="geometry">
            <mxPoint x="895" y="246" as="sourcePoint" />
            <mxPoint x="750" y="250" as="targetPoint" />
          </mxGeometry>
        </mxCell>
        <mxCell id="EIEG8Gj2_d-XNbKttuhR-92" value="&lt;span style=&quot;font-size: 18px;&quot;&gt;场景设备id&lt;/span&gt;" style="ellipse;whiteSpace=wrap;html=1;" vertex="1" parent="1">
          <mxGeometry x="230" width="110" height="40" as="geometry" />
        </mxCell>
        <mxCell id="EIEG8Gj2_d-XNbKttuhR-93" value="&lt;font style=&quot;font-size: 18px;&quot;&gt;用户id&lt;/font&gt;" style="ellipse;whiteSpace=wrap;html=1;" vertex="1" parent="1">
          <mxGeometry x="290" y="-50" width="100" height="40" as="geometry" />
        </mxCell>
        <mxCell id="EIEG8Gj2_d-XNbKttuhR-94" value="&lt;span style=&quot;font-size: 18px;&quot;&gt;用户设备id&lt;/span&gt;" style="ellipse;whiteSpace=wrap;html=1;" vertex="1" parent="1">
          <mxGeometry x="380" y="-80" width="110" height="40" as="geometry" />
        </mxCell>
        <mxCell id="EIEG8Gj2_d-XNbKttuhR-95" value="&lt;font style=&quot;font-size: 18px;&quot;&gt;设备状态&lt;/font&gt;" style="ellipse;whiteSpace=wrap;html=1;" vertex="1" parent="1">
          <mxGeometry x="490" y="-50" width="100" height="40" as="geometry" />
        </mxCell>
        <mxCell id="EIEG8Gj2_d-XNbKttuhR-96" value="&lt;font style=&quot;font-size: 18px;&quot;&gt;场景类型&lt;/font&gt;" style="ellipse;whiteSpace=wrap;html=1;" vertex="1" parent="1">
          <mxGeometry x="580" y="-10" width="100" height="40" as="geometry" />
        </mxCell>
        <mxCell id="EIEG8Gj2_d-XNbKttuhR-97" value="" style="endArrow=none;html=1;rounded=0;entryX=0;entryY=0;entryDx=0;entryDy=0;exitX=1;exitY=0.5;exitDx=0;exitDy=0;" edge="1" parent="1" source="EIEG8Gj2_d-XNbKttuhR-92" target="EIEG8Gj2_d-XNbKttuhR-11">
          <mxGeometry width="50" height="50" relative="1" as="geometry">
            <mxPoint x="480" y="140" as="sourcePoint" />
            <mxPoint x="530" y="90" as="targetPoint" />
          </mxGeometry>
        </mxCell>
        <mxCell id="EIEG8Gj2_d-XNbKttuhR-98" value="" style="endArrow=none;html=1;rounded=0;exitX=0.784;exitY=0.906;exitDx=0;exitDy=0;exitPerimeter=0;" edge="1" parent="1" source="EIEG8Gj2_d-XNbKttuhR-93" target="EIEG8Gj2_d-XNbKttuhR-11">
          <mxGeometry width="50" height="50" relative="1" as="geometry">
            <mxPoint x="350" y="30" as="sourcePoint" />
            <mxPoint x="400" y="60" as="targetPoint" />
          </mxGeometry>
        </mxCell>
        <mxCell id="EIEG8Gj2_d-XNbKttuhR-99" value="" style="endArrow=none;html=1;rounded=0;exitX=0.5;exitY=1;exitDx=0;exitDy=0;entryX=0.5;entryY=0;entryDx=0;entryDy=0;" edge="1" parent="1" source="EIEG8Gj2_d-XNbKttuhR-94" target="EIEG8Gj2_d-XNbKttuhR-11">
          <mxGeometry width="50" height="50" relative="1" as="geometry">
            <mxPoint x="378" y="-4" as="sourcePoint" />
            <mxPoint x="452" y="60" as="targetPoint" />
          </mxGeometry>
        </mxCell>
        <mxCell id="EIEG8Gj2_d-XNbKttuhR-100" value="" style="endArrow=none;html=1;rounded=0;entryX=0.711;entryY=-0.025;entryDx=0;entryDy=0;entryPerimeter=0;" edge="1" parent="1" source="EIEG8Gj2_d-XNbKttuhR-95" target="EIEG8Gj2_d-XNbKttuhR-11">
          <mxGeometry width="50" height="50" relative="1" as="geometry">
            <mxPoint x="445" y="-30" as="sourcePoint" />
            <mxPoint x="475" y="60" as="targetPoint" />
          </mxGeometry>
        </mxCell>
        <mxCell id="EIEG8Gj2_d-XNbKttuhR-101" value="" style="endArrow=none;html=1;rounded=0;entryX=1;entryY=0;entryDx=0;entryDy=0;exitX=0.029;exitY=0.665;exitDx=0;exitDy=0;exitPerimeter=0;" edge="1" parent="1" source="EIEG8Gj2_d-XNbKttuhR-96" target="EIEG8Gj2_d-XNbKttuhR-11">
          <mxGeometry width="50" height="50" relative="1" as="geometry">
            <mxPoint x="539" as="sourcePoint" />
            <mxPoint x="507" y="59" as="targetPoint" />
          </mxGeometry>
        </mxCell>
      </root>
    </mxGraphModel>
  </diagram>
</mxfile>
